<svg xmlns="http://www.w3.org/2000/svg" viewBox="0 0 24 24" fill="currentColor">
  <path d="M17.6 9.48l1.84-3.18c.16-.31.04-.69-.26-.85-.29-.15-.65-.06-.83.22l-1.88 3.24a11.43 11.43 0 0 0-8.94 0L5.65 5.67c-.19-.28-.54-.37-.83-.22-.3.16-.42.54-.26.85l1.84 3.18C4.18 11.06 3 13.42 3 16c0 4.42 3.58 8 8 8s8-3.58 8-8c0-2.58-1.18-4.94-3.4-6.52zM6.5 14c-.83 0-1.5-.67-1.5-1.5S5.67 11 6.5 11s1.5.67 1.5 1.5S7.33 14 6.5 14zm11 0c-.83 0-1.5-.67-1.5-1.5s.67-1.5 1.5-1.5 1.5.67 1.5 1.5-.67 1.5-1.5 1.5z"/>
</svg>
